<svg width="48" height="48" viewBox="0 0 640 640" xmlns="http://www.w3.org/2000/svg">
    <path transform="matrix(1.0407 0 0 1.0426 -13.082 -22.967)" x="-2.069737" y="9.389889" d="m628.41 340.07c0 69.01-89.81 125.04-200.42 125.04s-200.42-56.03-200.42-125.04 89.81-125.04 200.42-125.04 200.42 56.03 200.42 125.04z" fill="#99b9ac" />
    <path transform="matrix(1.0407 0 0 1.0426 -13.082 -22.967)" x="-2.069737" y="9.389889" d="m434.91 254.3c0 85.74-68.56 155.34-153 155.34-84.45 0-153.01-69.6-153.01-155.34 0-85.73 68.56-155.34 153.01-155.34 84.44 0 153 69.61 153 155.34z" fill="#ba90a6" />
    <path transform="matrix(1.0407 0 0 1.0426 -13.082 -22.967)" x="-2.069737" y="9.389889" d="m299.63 340.7c0 82.95-63.85 150.29-142.49 150.29-78.65 0-142.5-67.34-142.5-150.29s63.85-150.29 142.5-150.29c78.64 0 142.49 67.34 142.49 150.29z" fill="#e9cfcc" />
    <path transform="matrix(1.0407 0 0 1.0426 -13.082 -22.967)" x="-2.069737" y="9.389889" d="m451.1 417.42c0 67.09-52.96 121.56-118.2 121.56-65.23 0-118.2-54.47-118.2-121.56 0-67.1 52.97-121.57 118.2-121.57 65.24 0 118.2 54.47 118.2 121.57z" fill="#f5e8b6" />
</svg>