<svg width="640" height="640" xmlns="http://www.w3.org/2000/svg" xmlns:xlink="http://www.w3.org/1999/xlink" preserveAspectRatio="xMidYMid meet">
 <defs>
  <path id="d1f6yznHfw" d="m628.41,340.07c0,69.01 -89.81,125.04 -200.42,125.04c-110.61,0 -200.42,-56.03 -200.42,-125.04c0,-69.01 89.81,-125.04 200.42,-125.04c110.61,0 200.42,56.03 200.42,125.04z"/>
  <path id="b6058MUDt" d="m434.91,254.3c0,85.74 -68.56,155.34 -153,155.34c-84.45,0 -153.01,-69.6 -153.01,-155.34c0,-85.73 68.56,-155.34 153.01,-155.34c84.44,0 153,69.61 153,155.34z"/>
  <path id="e1A0ouNqi" d="m299.63,340.7c0,82.95 -63.85,150.29 -142.49,150.29c-78.65,0 -142.5,-67.34 -142.5,-150.29c0,-82.95 63.85,-150.29 142.5,-150.29c78.64,0 142.49,67.34 142.49,150.29z"/>
  <path id="a8f2nP375O" d="m451.1,417.42c0,67.09 -52.96,121.56 -118.2,121.56c-65.23,0 -118.2,-54.47 -118.2,-121.56c0,-67.1 52.97,-121.57 118.2,-121.57c65.24,0 118.2,54.47 118.2,121.57z"/>
 </defs>
 <g>
  <title>background</title>
  <rect fill="none" id="canvas_background" height="402" width="582" y="-1" x="-1"/>
 </g>
 <g>
  <title>Layer 1</title>
  <g stroke="null" id="svg_1">
   <g stroke="null" id="svg_2">
    <g stroke="null" id="svg_3">
     <use stroke="null" x="-2.069737" y="9.389889" transform="matrix(1.0407318821087277,0,0,1.0426117181777954,-13.08227469043142,-22.96686303120805) " id="svg_4" fill="#99b9ac" xlink:href="#d1f6yznHfw"/>
    </g>
    <g stroke="null" id="svg_5">
     <use stroke="null" x="-2.069737" y="9.389889" transform="matrix(1.0407318821087277,0,0,1.0426117181777954,-13.08227469043142,-22.96686303120805) " id="svg_6" fill="#ba90a6" xlink:href="#b6058MUDt"/>
    </g>
    <g stroke="null" id="svg_7">
     <use stroke="null" x="-2.069737" y="9.389889" transform="matrix(1.0407318821087277,0,0,1.0426117181777954,-13.08227469043142,-22.96686303120805) " id="svg_8" fill="#e9cfcc" xlink:href="#e1A0ouNqi"/>
    </g>
    <g stroke="null" id="svg_9">
     <use stroke="null" x="-2.069737" y="9.389889" transform="matrix(1.0407318821087277,0,0,1.0426117181777954,-13.08227469043142,-22.96686303120805) " id="svg_10" fill="#f5e8b6" xlink:href="#a8f2nP375O"/>
    </g>
   </g>
  </g>
 </g>
</svg>