<svg version="1" xmlns="http://www.w3.org/2000/svg" width="933.333" height="933.333" viewBox="0 0 700.000000 700.000000"><path d="M289.8 99.1c-3.7.4-8.9 1.1-11.5 1.4-2.7.4-5.5.8-6.3 1-3.6.5-9.1 1.8-17 4.3-4.7 1.4-8.7 2.6-9 2.7-.3.1-2.2.9-4.4 1.8-2.1.9-4.1 1.7-4.4 1.7-1.6 0-21.6 10.9-28.2 15.3-25.8 17.5-49.5 44.7-61.1 70.3l-2.8 6-8.3 1.3c-24 3.7-52.3 16.3-72.3 32.4-10.5 8.4-26.2 25.6-33.8 36.9-15.1 22.6-23.4 43.4-28.3 70.3-2.1 11.6-2.5 39.8-.8 52.7 6.6 50.3 33.7 94.8 73.9 121.4 13.3 8.9 31.6 17.7 42.1 20.3 2.1.5 6.6 1.6 9.9 2.5 15.2 3.7 36 5 50.4 3.2 15.4-2 14.6-1.9 23.1-4.1 9.6-2.5 23.4-7.8 32.2-12.5 4.2-2.2 7.9-4 8.1-4 .3 0 3 4.2 6.1 9.4 3.1 5.2 6.2 10.1 6.9 10.8.6.7 2.5 3.1 4.1 5.3 5.3 7.3 20.8 21.6 30.5 28 11.8 7.8 29.2 16 38.3 17.9 1.3.3 4.2 1 6.5 1.6 10.5 2.5 33.8 4.1 40.8 2.7 1.1-.3 4.7-.8 8-1.1 6.4-.8 7.4-1 20.5-5.2 34.2-10.8 64.4-37.5 80-70.8 1.7-3.6 3.4-6.7 3.8-6.8.8-.1 1.4-.2 14.2-1.2 4.7-.3 9.4-.8 10.5-1 1.1-.2 4.6-.7 7.9-1.1 9.7-1.1 16.8-2.5 32.7-6.1 11.2-2.5 37.8-10.9 39.3-12.5.6-.5 1.7-.9 2.6-.9.8 0 7.9-3.1 15.6-6.9 42.9-20.9 71.5-48.9 83.3-81.1 21.2-58.1-18.6-119.1-98.6-151.4-16.3-6.5-42.8-14.3-54.5-16-2.1-.3-5.7-1-8-1.5-5.5-1.2-9.6-1.8-18.3-2.6-3.8-.4-7.3-.9-7.6-1.1-.3-.2-7.8-.6-16.5-1s-16-.8-16.2-.9c-.2-.2-2.1-5.5-4.3-11.9-4.1-12.3-11-27.6-15.3-33.9-1.4-2.1-2.6-4-2.6-4.3 0-.2-1.6-2.7-3.5-5.5-17.6-25.6-41.4-46.1-68.8-59.3-14.9-7.2-34-13.2-47.7-15-1.9-.2-5.6-.8-8.1-1.1-6.6-1-25.2-1.2-33.1-.4z"/></svg>